<svg xmlns="http://www.w3.org/2000/svg" viewBox="0 0 420 200" fill="none">
  <defs>
    <style>
      .nb {
        font-family: 'Arial Rounded MT Bold', 'Nunito', Arial, sans-serif;
        font-size: 110px;
        font-weight: 900;
        fill: #F7E6C2;
        stroke: #2D1D0F;
        stroke-width: 11;
        stroke-linejoin: round;
        stroke-linecap: round;
        paint-order: stroke fill;
      }
      .ms {
        font-family: 'Dancing Script', 'Brush Script MT', 'Apple Chancery', cursive;
        font-size: 64px;
        font-weight: 700;
        fill: #3374B5;
      }
    </style>
  </defs>

  <!-- NOHO bubble text -->
  <text x="205" y="112" text-anchor="middle" class="nb">NOHO</text>

  <!-- Mailbox script -->
  <text x="14" y="175" class="ms">Mailbox</text>

  <!-- Blue swoosh underline -->
  <path d="M14 185 Q155 198 298 184" stroke="#3374B5" stroke-width="4.5" stroke-linecap="round" fill="none"/>

  <!-- Mailbox icon (original icon at 0.5 scale) -->
  <g transform="translate(304, 118) scale(0.5)">
    <!-- Post -->
    <rect x="52" y="90" width="16" height="45" rx="2" fill="#F7E6C2" stroke="#2D1D0F" stroke-width="3"/>
    <!-- Base plate -->
    <rect x="40" y="130" width="40" height="6" rx="3" fill="#F7E6C2" stroke="#2D1D0F" stroke-width="3"/>
    <!-- Mailbox body -->
    <rect x="18" y="30" width="84" height="55" rx="10" fill="#F7E6C2" stroke="#2D1D0F" stroke-width="3.5"/>
    <!-- Mailbox top arc -->
    <path d="M18 50 Q18 20 60 20 Q102 20 102 50" fill="#F7E6C2" stroke="#2D1D0F" stroke-width="3.5"/>
    <!-- Flag pole -->
    <rect x="100" y="32" width="6" height="30" rx="2" fill="#3374B5" stroke="#2D1D0F" stroke-width="2"/>
    <!-- Flag -->
    <rect x="98" y="28" width="16" height="10" rx="3" fill="#3374B5" stroke="#2D1D0F" stroke-width="2"/>
    <!-- Heart -->
    <path d="M50 55 C50 48 40 45 40 52 C40 60 50 66 50 66 C50 66 60 60 60 52 C60 45 50 48 50 55Z" fill="#3374B5"/>
  </g>
</svg>
