<svg xmlns="http://www.w3.org/2000/svg" viewBox="0 0 120 140" fill="none">
  <!-- Post -->
  <rect x="52" y="90" width="16" height="45" rx="2" fill="#EBF2FA" stroke="#1A1714" stroke-width="3"/>
  <!-- Base plate -->
  <rect x="40" y="130" width="40" height="6" rx="3" fill="#EBF2FA" stroke="#1A1714" stroke-width="3"/>
  <!-- Mailbox body -->
  <rect x="18" y="30" width="84" height="55" rx="10" fill="#EBF2FA" stroke="#1A1714" stroke-width="3.5"/>
  <!-- Mailbox top (rounded) -->
  <path d="M18 50 Q18 20 60 20 Q102 20 102 50" fill="#EBF2FA" stroke="#1A1714" stroke-width="3.5"/>
  <!-- Flag (raised) -->
  <rect x="100" y="32" width="6" height="30" rx="2" fill="#3374B5" stroke="#1A1714" stroke-width="2"/>
  <rect x="98" y="28" width="16" height="10" rx="3" fill="#3374B5" stroke="#1A1714" stroke-width="2"/>
  <!-- Heart on mailbox -->
  <path d="M50 55 C50 48 40 45 40 52 C40 60 50 66 50 66 C50 66 60 60 60 52 C60 45 50 48 50 55Z" fill="#3374B5"/>
  <!-- Envelope sticking out top -->
  <g transform="translate(62, 8) rotate(10)">
    <rect x="0" y="0" width="22" height="16" rx="2" fill="#EBF2FA" stroke="#1A1714" stroke-width="2"/>
    <path d="M1 1 L11 9 L21 1" stroke="#1A1714" stroke-width="2" fill="none"/>
  </g>
</svg>
